<svg width="20" height="21" viewBox="0 0 20 21" fill="none" xmlns="http://www.w3.org/2000/svg">
<g id="Group">
<path id="Vector" d="M10.5379 12.0412H13.0608C13.7782 12.0412 14.2325 11.6464 14.2325 11.0123C14.2325 10.4141 13.7782 9.98337 13.0608 9.98337H10.5379C10.4542 9.98337 10.3825 10.0552 10.3825 10.1269V11.8976C10.3945 11.9814 10.4542 12.0412 10.5379 12.0412Z" fill="#313440"/>
<path id="Vector_2" d="M10.5379 16.1218H13.1445C13.9456 16.1218 14.4238 15.7151 14.4238 14.9972C14.4238 14.3751 13.9695 13.8726 13.1445 13.8726H10.5379C10.4542 13.8726 10.3825 13.9444 10.3825 14.0162V15.9663C10.3945 16.062 10.4542 16.1218 10.5379 16.1218Z" fill="#313440"/>
<path id="Vector_3" d="M19.7679 0.700392L12.3069 8.14203H13.5265C15.4276 8.14203 16.5515 9.33844 16.5515 10.6425C16.5515 11.6714 15.8581 12.4252 15.1167 12.7602C14.9972 12.808 14.9972 12.9755 15.1287 13.0234C15.9896 13.3584 16.5994 14.2557 16.5994 15.3085C16.5994 16.792 15.607 17.9765 13.6819 17.9765H8.39711C8.31341 17.9765 8.24167 17.9047 8.24167 17.8329V12.1978L0.0513782 20.3573C-0.0562315 20.465 0.0155083 20.6564 0.170945 20.6564H19.8635C19.9353 20.6564 19.995 20.5966 19.995 20.5248V0.808067C20.0309 0.676463 19.8635 0.604679 19.7679 0.700392Z" fill="#313440"/>
</g>
</svg>