<svg width="82" height="90" viewBox="0 0 82 90" fill="none" xmlns="http://www.w3.org/2000/svg">
<rect x="1" y="2.5" width="74.7119" height="65.6564" rx="4.5" fill="white" stroke="#3C64F4"/>
<mask id="path-2-inside-1_1_5754" fill="white">
<path d="M3.85596 9.44034C3.85596 7.2312 5.64682 5.44034 7.85596 5.44034H68.856C71.0651 5.44034 72.856 7.2312 72.856 9.44034V60.9128C72.856 63.122 71.0651 64.9128 68.856 64.9128H38.356H7.85596C5.64682 64.9128 3.85596 63.122 3.85596 60.9128V9.44034Z"/>
</mask>
<path d="M3.85596 9.44034C3.85596 7.2312 5.64682 5.44034 7.85596 5.44034H68.856C71.0651 5.44034 72.856 7.2312 72.856 9.44034V60.9128C72.856 63.122 71.0651 64.9128 68.856 64.9128H38.356H7.85596C5.64682 64.9128 3.85596 63.122 3.85596 60.9128V9.44034Z" fill="white"/>
<path d="M7.85596 6.44034H68.856V4.44034H7.85596V6.44034ZM71.856 9.44034V60.9128H73.856V9.44034H71.856ZM4.85596 60.9128V9.44034H2.85596V60.9128H4.85596ZM68.856 63.9128H38.356V65.9128H68.856V63.9128ZM38.356 63.9128H7.85596V65.9128H38.356V63.9128ZM2.85596 60.9128C2.85596 63.6742 5.09453 65.9128 7.85596 65.9128V63.9128C6.1991 63.9128 4.85596 62.5697 4.85596 60.9128H2.85596ZM71.856 60.9128C71.856 62.5697 70.5128 63.9128 68.856 63.9128V65.9128C71.6174 65.9128 73.856 63.6743 73.856 60.9128H71.856ZM68.856 6.44034C70.5128 6.44034 71.856 7.78348 71.856 9.44034H73.856C73.856 6.67891 71.6174 4.44034 68.856 4.44034V6.44034ZM7.85596 4.44034C5.09453 4.44034 2.85596 6.67891 2.85596 9.44034H4.85596C4.85596 7.78348 6.1991 6.44034 7.85596 6.44034V4.44034Z" fill="#3C64F4" mask="url(#path-2-inside-1_1_5754)"/>
<mask id="mask0_1_5754" style="mask-type:alpha" maskUnits="userSpaceOnUse" x="26" y="23" width="25" height="25">
<rect x="26.856" y="23.3282" width="24" height="24" fill="#3C64F4"/>
</mask>
<g mask="url(#mask0_1_5754)">
<path d="M44.0401 35.1015C43.6496 35.492 43.0164 35.492 42.6259 35.1015L39.1017 31.5773C38.7112 31.1867 38.7111 30.5536 39.1017 30.1631L42.6259 26.6388C43.0164 26.2483 43.6496 26.2483 44.0401 26.6388L47.5643 30.163C47.9548 30.5536 47.9548 31.1867 47.5643 31.5773L44.0401 35.1015ZM31.6638 34.1355C31.1115 34.1355 30.6638 33.6878 30.6638 33.1355V28.1356C30.6638 27.5833 31.1115 27.1356 31.6638 27.1356H36.6637C37.216 27.1356 37.6637 27.5833 37.6637 28.1356V33.1355C37.6637 33.6878 37.216 34.1355 36.6637 34.1355H31.6638ZM41.0484 43.5201C40.4961 43.5201 40.0484 43.0724 40.0484 42.5201V37.5202C40.0484 36.9679 40.4961 36.5202 41.0484 36.5202H46.0483C46.6006 36.5202 47.0483 36.9679 47.0483 37.5202V42.5201C47.0483 43.0724 46.6006 43.5201 46.0483 43.5201H41.0484ZM31.6638 43.5201C31.1115 43.5201 30.6638 43.0724 30.6638 42.5201V37.5202C30.6638 36.9679 31.1115 36.5202 31.6638 36.5202H36.6637C37.216 36.5202 37.6637 36.9679 37.6637 37.5202V42.5201C37.6637 43.0724 37.216 43.5201 36.6637 43.5201H31.6638ZM32.1638 31.6356C32.1638 32.1878 32.6115 32.6356 33.1638 32.6356H35.1638C35.7161 32.6356 36.1638 32.1878 36.1638 31.6356V29.6356C36.1638 29.0833 35.7161 28.6356 35.1638 28.6356H33.1638C32.6115 28.6356 32.1638 29.0833 32.1638 29.6356V31.6356ZM42.6509 33.0131C43.0414 33.4036 43.6746 33.4036 44.0651 33.0131L45.4759 31.6023C45.8664 31.2117 45.8664 30.5786 45.4759 30.1881L44.0651 28.7773C43.6746 28.3867 43.0414 28.3867 42.6509 28.7773L41.2401 30.1881C40.8496 30.5786 40.8496 31.2117 41.2401 31.6023L42.6509 33.0131ZM41.5483 41.0201C41.5483 41.5724 41.9961 42.0201 42.5483 42.0201H44.5483C45.1006 42.0201 45.5483 41.5724 45.5483 41.0201V39.0201C45.5483 38.4678 45.1006 38.0201 44.5483 38.0201H42.5483C41.9961 38.0201 41.5483 38.4678 41.5483 39.0201V41.0201ZM32.1638 41.0201C32.1638 41.5724 32.6115 42.0201 33.1638 42.0201H35.1638C35.7161 42.0201 36.1638 41.5724 36.1638 41.0201V39.0201C36.1638 38.4678 35.7161 38.0201 35.1638 38.0201H33.1638C32.6115 38.0201 32.1638 38.4678 32.1638 39.0201V41.0201Z" fill="#3C64F4"/>
</g>
<ellipse cx="41" cy="84.6564" rx="40.5" ry="3" fill="#D9D9D9"/>
</svg>