<svg width="82" height="90" viewBox="0 0 82 90" fill="none" xmlns="http://www.w3.org/2000/svg">
<rect x="1" y="2.5" width="74.7119" height="65.6564" rx="4.5" fill="white" stroke="#3C64F4"/>
<mask id="path-2-inside-1_1_5754" fill="white">
<path d="M3.85596 9.44034C3.85596 7.2312 5.64682 5.44034 7.85596 5.44034H68.856C71.0651 5.44034 72.856 7.2312 72.856 9.44034V60.9128C72.856 63.122 71.0651 64.9128 68.856 64.9128H38.356H7.85596C5.64682 64.9128 3.85596 63.122 3.85596 60.9128V9.44034Z"/>
</mask>
<path d="M3.85596 9.44034C3.85596 7.2312 5.64682 5.44034 7.85596 5.44034H68.856C71.0651 5.44034 72.856 7.2312 72.856 9.44034V60.9128C72.856 63.122 71.0651 64.9128 68.856 64.9128H38.356H7.85596C5.64682 64.9128 3.85596 63.122 3.85596 60.9128V9.44034Z" fill="white"/>
<path d="M7.85596 6.44034H68.856V4.44034H7.85596V6.44034ZM71.856 9.44034V60.9128H73.856V9.44034H71.856ZM4.85596 60.9128V9.44034H2.85596V60.9128H4.85596ZM68.856 63.9128H38.356V65.9128H68.856V63.9128ZM38.356 63.9128H7.85596V65.9128H38.356V63.9128ZM2.85596 60.9128C2.85596 63.6742 5.09453 65.9128 7.85596 65.9128V63.9128C6.1991 63.9128 4.85596 62.5697 4.85596 60.9128H2.85596ZM71.856 60.9128C71.856 62.5697 70.5128 63.9128 68.856 63.9128V65.9128C71.6174 65.9128 73.856 63.6743 73.856 60.9128H71.856ZM68.856 6.44034C70.5128 6.44034 71.856 7.78348 71.856 9.44034H73.856C73.856 6.67891 71.6174 4.44034 68.856 4.44034V6.44034ZM7.85596 4.44034C5.09453 4.44034 2.85596 6.67891 2.85596 9.44034H4.85596C4.85596 7.78348 6.1991 6.44034 7.85596 6.44034V4.44034Z" fill="#3C64F4" mask="url(#path-2-inside-1_1_5754)"/>
<g transform="translate(32.856, 15.3282) scale(0.075)">
<!--!Font Awesome Free 6.7.1 by @fontawesome - https://fontawesome.com License - https://fontawesome.com/license/free Copyright 2024 Fonticons, Inc.-->
<path fill="#3C64F4" d="M96 64c0-17.7-14.3-32-32-32S32 46.3 32 64l0 256c0 17.7 14.3 32 32 32s32-14.3 32-32L96 64zM64 480a40 40 0 1 0 0-80 40 40 0 1 0 0 80z"/>
</g>
<ellipse cx="41" cy="84.6564" rx="40.5" ry="3" fill="#D9D9D9"/>
</svg>