<svg width="82" height="90" viewBox="0 0 82 90" fill="none" xmlns="http://www.w3.org/2000/svg">
<rect x="1" y="2.5" width="74.7119" height="65.6564" rx="4.5" fill="white" stroke="#3C64F4"/>
<mask id="path-2-inside-1_1_5754" fill="white">
<path d="M3.85596 9.44034C3.85596 7.2312 5.64682 5.44034 7.85596 5.44034H68.856C71.0651 5.44034 72.856 7.2312 72.856 9.44034V60.9128C72.856 63.122 71.0651 64.9128 68.856 64.9128H38.356H7.85596C5.64682 64.9128 3.85596 63.122 3.85596 60.9128V9.44034Z"/>
</mask>
<path d="M3.85596 9.44034C3.85596 7.2312 5.64682 5.44034 7.85596 5.44034H68.856C71.0651 5.44034 72.856 7.2312 72.856 9.44034V60.9128C72.856 63.122 71.0651 64.9128 68.856 64.9128H38.356H7.85596C5.64682 64.9128 3.85596 63.122 3.85596 60.9128V9.44034Z" fill="white"/>
<path d="M7.85596 6.44034H68.856V4.44034H7.85596V6.44034ZM71.856 9.44034V60.9128H73.856V9.44034H71.856ZM4.85596 60.9128V9.44034H2.85596V60.9128H4.85596ZM68.856 63.9128H38.356V65.9128H68.856V63.9128ZM38.356 63.9128H7.85596V65.9128H38.356V63.9128ZM2.85596 60.9128C2.85596 63.6742 5.09453 65.9128 7.85596 65.9128V63.9128C6.1991 63.9128 4.85596 62.5697 4.85596 60.9128H2.85596ZM71.856 60.9128C71.856 62.5697 70.5128 63.9128 68.856 63.9128V65.9128C71.6174 65.9128 73.856 63.6743 73.856 60.9128H71.856ZM68.856 6.44034C70.5128 6.44034 71.856 7.78348 71.856 9.44034H73.856C73.856 6.67891 71.6174 4.44034 68.856 4.44034V6.44034ZM7.85596 4.44034C5.09453 4.44034 2.85596 6.67891 2.85596 9.44034H4.85596C4.85596 7.78348 6.1991 6.44034 7.85596 6.44034V4.44034Z" fill="#3C64F4" mask="url(#path-2-inside-1_1_5754)"/>
<g transform="translate(15.856, 15.3282) scale(0.075)">
<path fill="#3C64F4" d="M0 128C0 92.7 28.7 64 64 64l192 0 48 0 16 0 256 0c35.3 0 64 28.7 64 64l0 256c0 35.3-28.7 64-64 64l-256 0-16 0-48 0L64 448c-35.3 0-64-28.7-64-64L0 128zm320 0l0 256 256 0 0-256-256 0zM178.3 175.9c-3.2-7.2-10.4-11.9-18.3-11.9s-15.1 4.7-18.3 11.9l-64 144c-4.5 10.1 .1 21.9 10.2 26.4s21.9-.1 26.4-10.2l8.9-20.1 73.6 0 8.9 20.1c4.5 10.1 16.3 14.6 26.4 10.2s14.6-16.3 10.2-26.4l-64-144zM160 233.2L179 276l-38 0 19-42.8zM448 164c11 0 20 9 20 20l0 4 44 0 16 0c11 0 20 9 20 20s-9 20-20 20l-2 0-1.6 4.5c-8.9 24.4-22.4 46.6-39.6 65.4c.9 .6 1.8 1.1 2.7 1.6l18.9 11.3c9.5 5.7 12.5 18 6.9 27.4s-18 12.5-27.4 6.9l-18.9-11.3c-4.5-2.7-8.8-5.5-13.1-8.5c-10.6 7.5-21.9 14-34 19.4l-3.6 1.6c-10.1 4.5-21.9-.1-26.4-10.2s.1-21.9 10.2-26.4l3.6-1.6c6.4-2.9 12.6-6.1 18.5-9.8l-12.2-12.2c-7.8-7.8-7.8-20.5 0-28.3s20.5-7.8 28.3 0l14.6 14.6 .5 .5c12.4-13.1 22.5-28.3 29.8-45L448 228l-72 0c-11 0-20-9-20-20s9-20 20-20l52 0 0-4c0-11 9-20 20-20z"/>
</g>
<ellipse cx="41" cy="84.6564" rx="40.5" ry="3" fill="#D9D9D9"/>
</svg>